<?xml version="1.0" encoding="UTF-8" standalone="no"?>
<svg
   xmlns:dc="http://purl.org/dc/elements/1.1/"
   xmlns:cc="http://creativecommons.org/ns#"
   xmlns:rdf="http://www.w3.org/1999/02/22-rdf-syntax-ns#"
   xmlns:svg="http://www.w3.org/2000/svg"
   xmlns="http://www.w3.org/2000/svg"
   xmlns:sodipodi="http://sodipodi.sourceforge.net/DTD/sodipodi-0.dtd"
   xmlns:inkscape="http://www.inkscape.org/namespaces/inkscape"
   version="1.1"
   id="Your_Icon"
   x="0px"
   y="0px"
   width="15"
   height="15"
   viewBox="0 0 15 15"
   enable-background="new 0 0 100 100"
   xml:space="preserve"
   inkscape:version="0.91 r13725"
   sodipodi:docname="ice.svg"><metadata
     id="metadata9"><rdf:RDF><cc:Work
         rdf:about=""><dc:format>image/svg+xml</dc:format><dc:type
           rdf:resource="http://purl.org/dc/dcmitype/StillImage" /><dc:title></dc:title></cc:Work></rdf:RDF></metadata><defs
     id="defs7" /><sodipodi:namedview
     pagecolor="#ffffff"
     bordercolor="#666666"
     borderopacity="1"
     objecttolerance="10"
     gridtolerance="10"
     guidetolerance="10"
     inkscape:pageopacity="0"
     inkscape:pageshadow="2"
     inkscape:window-width="1289"
     inkscape:window-height="803"
     id="namedview5"
     showgrid="false"
     inkscape:zoom="2.36"
     inkscape:cx="-2.9656437"
     inkscape:cy="49.881352"
     inkscape:window-x="68"
     inkscape:window-y="0"
     inkscape:window-maximized="0"
     inkscape:current-layer="Your_Icon"
     fit-margin-top="0"
     fit-margin-left="0"
     fit-margin-right="0"
     fit-margin-bottom="0" /><g
     id="g3359"
     transform="matrix(0.15740861,0,0,0.15740861,-0.77294852,0.05406259)"><path
       style="fill:#000000"
       inkscape:connector-curvature="0"
       id="path3"
       d="m 86.720628,48.999219 c -0.416482,0 -0.825393,0.04878 -1.229976,0.120328 l -6.266711,-0.03577 C 72.771165,29.775972 59.476174,16.487834 44.148531,16.487834 c -10.042099,0 -19.211208,5.705835 -26.158355,15.067045 -0.11034,-0.0081 -0.176329,-0.01463 -0.176329,-0.01463 l -0.01082,0.256917 c -3.005165,4.09929 -5.577621,8.896158 -7.624337,14.205235 l -0.0054,0 0,0.01626 C 6.83385,54.690418 4.9104575,64.742703 4.9104575,75.464923 l 0,2.653725 46.7217795,0 21.607336,0 3.592567,0 6.5523,0 16.81941,0 0,-2.653725 c 0,-14.592236 -6.049277,-26.465704 -13.483222,-26.465704 z m -6.911448,23.810353 -1.727591,0 -1.234304,0 c 0.223927,-3.793591 0.92708,-7.271727 1.969909,-10.167735 0.738851,-2.058588 1.648623,-3.824486 2.688206,-5.188748 1.23863,-1.626057 2.656835,-2.68462 4.173481,-3.02284 l 1.055811,0.0065 1.066628,0.0065 c 4.570491,1.056937 8.222557,8.702657 8.792651,18.36794 l -13.254965,0 -3.529826,0 z m -16.643079,0 -1.769781,0 -1.100162,0 c 0.189309,-1.780533 0.492206,-3.683019 0.865417,-5.396883 0.269363,-1.24556 0.572259,-2.359409 0.882728,-3.268375 0.227172,0 0.447854,0 0.675026,0.0016 1.176969,0.0049 2.358266,0.0081 3.507108,0.0081 0.824311,0 1.619415,-0.0033 2.427499,-0.0065 -0.698825,2.471607 -1.295964,5.726973 -1.584797,8.662006 l -3.903038,0 z M 44.843029,59.568589 c -0.775631,0.01626 -1.582634,0.02602 -2.380982,0.03415 -0.0357,-3.23748 -0.08221,-6.657078 -0.144958,-10.125458 0.796185,-0.0098 1.593452,-0.01789 2.364756,-0.03415 2.522695,-0.04553 4.924231,-0.126832 7.212181,-0.232526 0.566849,3.175689 1.043911,6.551384 1.416041,10.078302 -2.670897,0.130084 -5.492162,0.226022 -8.467038,0.279681 z m -15.247591,0.0033 c -0.752914,-0.01301 -1.480948,-0.02927 -2.213308,-0.04065 0.369967,-3.549682 0.836211,-6.948142 1.399815,-10.133587 0.83621,0.01789 1.681075,0.03415 2.546494,0.04715 2.365837,0.0374 4.671096,0.05691 6.901711,0.05691 0.786449,0 1.552345,-0.0049 2.321485,-0.0098 0.06058,3.471632 0.108177,6.89123 0.144958,10.128709 -3.526581,0.02764 -7.237062,0.01138 -11.101155,-0.04878 z m -12.09206,-0.32196 c -0.73236,-0.02927 -1.431185,-0.05366 -2.099721,-0.0813 0.66529,-3.536674 1.510155,-6.931881 2.521613,-10.120579 0.834047,0.03415 1.704874,0.06992 2.639526,0.104068 1.948274,0.07317 4.117228,0.143093 6.410588,0.200005 -0.553868,3.204958 -1.016867,6.592035 -1.379261,10.13684 -2.943504,-0.06667 -5.686881,-0.149598 -8.092745,-0.239031 z M 13.176286,48.826857 c 0.807003,0.04065 1.760045,0.08943 2.834246,0.136588 -0.972515,3.213089 -1.786008,6.603418 -2.425336,10.130336 -1.3057,-0.05529 -2.446971,-0.10732 -3.375132,-0.154476 0.765896,-3.541552 1.750309,-6.935133 2.966222,-10.112448 z M 34.268697,34.977729 c 0.174166,0.0033 0.336432,0.0033 0.508434,0.0049 -0.940061,3.567569 -1.768699,7.525392 -2.47077,11.818183 -0.321287,-0.0033 -0.632837,-0.0065 -0.957369,-0.01138 l -0.01082,1.326863 0.0086,-1.326863 c -2.760685,-0.0439 -5.378576,-0.110572 -7.785521,-0.186996 1.286228,-4.318808 2.796383,-8.297769 4.52073,-11.819809 1.909329,0.07968 3.986333,0.149597 6.186659,0.195127 z M 61.852829,33.46387 c 1.816296,3.481388 3.403258,7.424576 4.754392,11.704358 -0.14063,0.02276 -0.272606,0.04716 -0.417564,0.07155 -2.357183,0.375619 -5.068106,0.68457 -8.057046,0.926852 -0.715052,-4.28466 -1.559916,-8.240857 -2.518367,-11.805174 1.953682,-0.200005 3.755916,-0.439035 5.358022,-0.721969 0.307223,-0.05529 0.585239,-0.117076 0.880563,-0.175614 z m 1.101245,15.90609 c -3.168514,1.008155 -5.969224,4.178966 -7.992139,8.733552 -0.346168,-3.123656 -0.766978,-6.123731 -1.263511,-8.980713 0.728032,-0.03903 1.450658,-0.07968 2.148401,-0.126832 2.444807,-0.16098 4.697059,-0.370741 6.785963,-0.613024 0.108177,0.326838 0.219599,0.653675 0.321286,0.987017 z m 14.812718,6.362761 c -0.10385,0.178866 -0.206618,0.360985 -0.307223,0.547981 -0.403502,0.749612 -0.788612,1.53012 -1.145597,2.375669 -0.368885,0.881323 -0.698827,1.826062 -1.01254,2.801697 -0.169838,0 -0.351576,0.0033 -0.523578,0.0033 -0.598221,0.0065 -1.205095,0.0098 -1.814134,0.01463 -1.808725,0.01138 -3.653148,0.02114 -5.543005,0.02276 0.06707,-0.266673 0.137385,-0.534973 0.229336,-0.827663 0.278016,-0.891079 0.650146,-1.866713 1.056893,-2.835843 0.550622,-1.308976 1.148842,-2.559414 1.655112,-3.496023 l 6.580425,0.04065 1.658359,0.0081 c -0.287752,0.427653 -0.565767,0.874818 -0.834048,1.344749 z m -17.051988,5.75299 c -0.0011,-0.0098 -0.0011,-0.01626 -0.0011,-0.02439 -0.08654,0.0081 -0.18282,0.01301 -0.269362,0.02114 -0.916262,-0.0065 -1.844423,-0.01301 -2.773667,-0.01951 0.381866,-0.913844 0.798349,-1.756142 1.246203,-2.520389 1.513401,-2.574048 3.382705,-4.229374 5.428337,-4.562716 0.250972,-0.04065 0.505189,-0.07642 0.761569,-0.07642 l 1.099081,0.0065 1.953683,0.01301 c -0.428382,0.89921 -0.880563,1.918748 -1.303537,2.991945 -0.112505,0.282934 -0.223927,0.564242 -0.328859,0.850428 -0.111423,0.300821 -0.205536,0.596763 -0.30506,0.895958 -0.214191,0.643918 -0.392683,1.26995 -0.53115,1.869965 -0.04435,0.188623 -0.09628,0.38375 -0.130895,0.565868 -1.00713,-0.0016 -2.03157,-0.0033 -3.060336,-0.0081 -0.596057,0 -1.184542,-0.0016 -1.784925,-0.0033 z M 34.12374,46.82518 c 0.723706,-4.318807 1.573979,-8.296143 2.542166,-11.821434 1.070956,0.01301 2.160302,0.03415 3.198803,0.03415 1.546936,0 3.053846,-0.01463 4.512076,-0.0439 0.267198,-0.0049 0.513842,-0.01789 0.777795,-0.02602 0.107095,3.748061 0.193637,7.751413 0.263952,11.803548 -0.255298,0.0049 -0.499779,0.01301 -0.757241,0.01789 -3.301572,0.06342 -6.838969,0.07317 -10.537551,0.03577 z m 7.992139,-24.878672 c 0.03246,-0.0033 0.06599,-0.0049 0.09845,-0.0081 2.961894,2.161029 5.510552,5.574123 7.585393,10.197003 -1.747064,0.09431 -3.548216,0.16911 -5.446728,0.206509 -0.605793,0.01301 -1.25702,0.0098 -1.87904,0.01626 -0.09952,-4.84565 -0.218518,-8.284761 -0.358067,-10.411643 z m 5.067026,24.784361 c -0.07032,-4.057012 -0.156858,-8.063617 -0.260708,-11.818182 2.079168,-0.07155 4.098838,-0.165858 5.962733,-0.305699 0.299651,-0.02439 0.578749,-0.05041 0.871909,-0.0748 0.983332,3.51391 1.84226,7.473358 2.57462,11.772653 -0.191474,0.01301 -0.366721,0.02927 -0.560358,0.04065 -2.647099,0.172362 -5.531106,0.302446 -8.588196,0.385375 z m 5.61332,-14.77598 c -0.307224,0.02439 -0.649064,0.03577 -0.962779,0.05854 -1.582633,-3.847251 -3.451937,-7.00668 -5.586275,-9.445765 4.396325,2.055336 8.251764,5.021264 11.493839,8.886401 -1.531792,0.198379 -3.175005,0.367489 -4.944785,0.500826 z M 40.353671,22.138383 c 0.137385,2.030945 0.255299,5.470055 0.35374,10.236029 -2.079168,0.0081 -4.204852,-0.0016 -6.413833,-0.05041 -0.467326,-0.0098 -0.917343,-0.02276 -1.37277,-0.03415 2.032652,-4.559464 4.530465,-7.951419 7.432863,-10.151474 z m 14.887361,50.671189 c 0.188229,-3.170811 0.710725,-6.122105 1.48311,-8.697779 1.138026,0.0098 2.261988,0.01626 3.379459,0.02276 -0.703151,2.471606 -1.301373,5.735103 -1.590205,8.675014 l -3.272364,0 z m 15.361177,-8.665258 c 0.935734,-0.0049 1.846587,-0.01301 2.760686,-0.01951 0.400255,-0.0033 0.801594,-0.0065 1.19644,-0.0098 -0.296406,1.222795 -0.556031,2.486241 -0.755077,3.804973 -0.240154,1.57565 -0.409992,3.208211 -0.496534,4.889554 l -4.453659,0 c 0.326695,-3.074874 1.010375,-6.512359 1.748144,-8.665258 z M 65.113293,48.999219 c -0.103851,0 -0.203374,0.02602 -0.307224,0.03252 -0.09087,-0.302447 -0.191474,-0.587007 -0.284506,-0.884575 0.632838,-0.08781 1.262429,-0.172362 1.854159,-0.2683 3.162023,-0.505703 5.656592,-1.115475 7.572412,-1.837444 0.433791,0.990269 0.862173,1.985416 1.251611,3.019588 l -10.086452,-0.06179 z m 7.773621,-5.302572 c -1.233221,0.417896 -2.719577,0.795142 -4.432024,1.134988 -1.312191,-4.292791 -2.865617,-8.245736 -4.625662,-11.803548 0.598221,-0.147972 1.163988,-0.304073 1.694057,-0.466679 2.800711,3.159429 5.287706,6.89936 7.363629,11.135239 z M 63.529577,30.415013 c -0.856765,0.211387 -1.764372,0.409766 -2.76393,0.588633 -0.187147,0.03252 -0.389439,0.06179 -0.583076,0.09268 -2.329057,-3.104143 -4.985892,-5.725347 -7.948868,-7.855482 4.070712,1.4228 7.888289,3.848877 11.295874,7.174164 z M 35.953018,23.281501 c -1.935292,2.377295 -3.631512,5.37737 -5.086497,8.948192 -1.805479,-0.05854 -3.510353,-0.126833 -5.037817,-0.200005 -0.881645,-0.04228 -1.685403,-0.08618 -2.449135,-0.128459 3.724545,-4.021239 7.97375,-6.987167 12.573449,-8.619728 z M 21.211697,34.431374 c 1.254857,0.07642 2.796383,0.165858 4.561837,0.250413 0.06599,0.0016 0.141712,0.0065 0.206618,0.0081 -1.648622,3.58383 -3.105771,7.548157 -4.334665,11.847451 -0.342922,-0.01138 -0.703152,-0.02276 -1.036338,-0.03577 -2.498896,-0.09269 -4.64297,-0.190249 -6.343517,-0.274804 1.924474,-4.427753 4.262185,-8.401836 6.946065,-11.795417 z M 9.6821587,61.56864 c 1.7795173,0.08943 4.4525783,0.213013 7.7801123,0.334967 0.893544,0.03415 1.834688,0.06504 2.810446,0.09756 -0.693416,4.578976 -0.979004,8.424601 -1.082855,10.808401 l -10.7041446,0 C 8.6122851,68.937926 9.0363397,65.186612 9.6821587,61.568636 Z m 12.3938743,0.484565 c 2.342039,0.06829 4.848507,0.128458 7.502096,0.169109 0.984414,0.01626 1.950437,0.02764 2.914297,0.03577 -0.38403,4.471657 -0.54305,8.213214 -0.603629,10.549858 l -10.924827,0 C 21.073229,70.42902 21.36639,66.5899 22.076033,62.053201 Z m 11.583626,10.756367 c 0.06274,-2.3464 0.223927,-6.102592 0.613365,-10.533598 1.068792,0.0065 2.133257,0.01301 3.175005,0.01301 2.567047,0 5.045389,-0.02276 7.415553,-0.06667 1.028767,-0.01951 2.035898,-0.0439 3.033293,-0.07317 0.03786,4.203357 0.05842,7.923776 0.06815,10.66043 l -14.305366,0 z m 16.071902,0 c -0.01082,-2.748037 -0.03137,-6.489594 -0.07032,-10.717342 1.330581,-0.0439 2.627627,-0.09919 3.885729,-0.159354 -0.988741,3.247236 -1.644295,6.927003 -1.846587,10.87507 l -1.968827,0 z" /><path
       inkscape:connector-curvature="0"
       id="path3026"
       d="m 24.863036,30.799326 c 2.247006,-2.403911 10.137422,-7.623976 10.137422,-6.706617 0,0.142738 -0.357206,0.765653 -0.793789,1.384256 -0.436584,0.618604 -1.392719,2.316471 -2.124744,3.773039 l -1.330955,2.648305 -3.457593,0 -3.457592,0 1.027251,-1.098983 z"
       style="fill:#ffffff;fill-opacity:0.984375;stroke:none" /><path
       inkscape:connector-curvature="0"
       id="path3028"
       d="m 33.848372,31.980884 c -0.661993,-0.420627 1.922242,-4.805195 4.330052,-7.346628 l 1.694915,-1.788975 0.275891,2.301938 c 0.15174,1.266065 0.294749,3.398336 0.317797,4.738378 l 0.0419,2.436441 -3.072034,-0.0065 c -1.689618,-0.0036 -3.304455,-0.154168 -3.588526,-0.334665 l 0,0 z"
       style="fill:#ffffff;fill-opacity:0.984375;stroke:none" /><path
       inkscape:connector-curvature="0"
       id="path3030"
       d="m 42.529011,27.567779 c -0.114657,-2.628802 -0.136926,-4.861548 -0.04949,-4.961658 0.326592,-0.373917 3.806123,3.774756 5.329189,6.354034 0.868693,1.471113 1.536066,2.708333 1.483051,2.749378 -0.05302,0.04105 -1.549418,0.201361 -3.325338,0.356256 l -3.228947,0.281629 -0.208468,-4.779639 z"
       style="fill:#ffffff;fill-opacity:0.984375;stroke:none" /><path
       inkscape:connector-curvature="0"
       id="path3032"
       d="m 51.090267,29.754288 c -0.533593,-1.139242 -1.504392,-2.8783 -2.15733,-3.864572 -0.652939,-0.986272 -1.102225,-1.878159 -0.998413,-1.981971 0.323504,-0.323504 4.540759,2.680497 6.955179,4.954257 1.267475,1.193635 2.220865,2.243446 2.118644,2.332914 -0.10222,0.08947 -1.257318,0.267982 -2.566884,0.396697 l -2.381027,0.234026 -0.970169,-2.071351 z"
       style="fill:#ffffff;fill-opacity:0.984375;stroke:none" /><path
       inkscape:connector-curvature="0"
       id="path3034"
       d="m 57.717832,27.872885 c -1.338214,-1.51483 -2.277795,-2.753524 -2.087957,-2.752653 1.006357,0.0046 6.912955,4.372034 6.912955,5.11153 0,0.217448 -0.538173,0.39536 -1.19594,0.39536 -0.939891,0 -1.716869,-0.58968 -3.629058,-2.754237 z"
       style="fill:#ffffff;fill-opacity:0.984375;stroke:none" /><path
       inkscape:connector-curvature="0"
       id="path3036"
       d="m 67.614251,41.778449 c -0.521845,-1.588738 -1.498597,-4.11457 -2.170561,-5.61296 -0.94235,-2.101316 -1.098817,-2.803433 -0.684187,-3.070175 0.781852,-0.502986 3.572988,3.000101 6.460084,8.107896 l 1.402931,2.482039 -1.468239,0.275443 c -0.807532,0.151494 -1.72091,0.372402 -2.02973,0.490907 -0.385336,0.147867 -0.859156,-0.69077 -1.510298,-2.67315 l 0,0 z"
       style="fill:#ffffff;fill-opacity:0.984375;stroke:none" /><path
       inkscape:connector-curvature="0"
       id="path3038"
       d="M 57.889503,43.487209 C 57.617979,42.123907 57.060686,39.5532 56.651074,37.774527 l -0.744748,-3.23395 2.900563,-0.392635 2.900563,-0.392634 1.091056,2.355399 c 0.60008,1.295469 1.635247,3.816751 2.300372,5.602849 l 1.209316,3.247451 -2.200479,0.270495 c -1.210264,0.148773 -2.993392,0.374882 -3.962507,0.502467 l -1.762026,0.231971 -0.493681,-2.478731 z"
       style="fill:#ffffff;fill-opacity:0.984375;stroke:none" /><path
       inkscape:connector-curvature="0"
       id="path3040"
       d="m 47.288593,40.841948 c 0,-6.233481 -0.163548,-5.977537 3.819661,-5.977537 1.999683,0 2.519239,0.143414 2.686378,0.741525 0.113968,0.407839 0.607627,2.552966 1.09702,4.766949 0.489393,2.213983 0.984663,4.454449 1.100599,4.978814 0.208194,0.941637 0.155847,0.953389 -4.246432,0.953389 l -4.457226,0 0,-5.46314 z"
       style="fill:#ffffff;fill-opacity:0.984375;stroke:none" /><path
       inkscape:connector-curvature="0"
       id="path3042"
       d="m 34.576729,46.086027 c 0,-0.353534 0.476695,-2.847602 1.059322,-5.542373 0.582627,-2.694772 1.059322,-4.979669 1.059322,-5.07755 0,-0.09788 1.906779,-0.177965 4.237288,-0.177965 l 4.237288,0 0,5.720339 0,5.720339 -5.29661,0 c -4.451968,0 -5.29661,-0.102504 -5.29661,-0.64279 z"
       style="fill:#ffffff;fill-opacity:0.984375;stroke:none" /><path
       inkscape:connector-curvature="0"
       id="path3044"
       d="m 26.419949,46.415687 c -1.340042,-0.08409 -2.436441,-0.205315 -2.436441,-0.269391 0,-0.420152 2.227783,-6.452546 3.20584,-8.680778 l 1.18316,-2.695503 1.890064,0.259062 c 1.039536,0.142484 2.446738,0.259062 3.127118,0.259062 0.680379,0 1.150468,0.143009 1.044643,0.317797 -0.105826,0.174788 -0.595599,2.319915 -1.088385,4.766949 -0.492786,2.447034 -0.993121,4.878178 -1.111856,5.402542 -0.23181,1.023734 -0.0399,1.0026 -5.814143,0.64026 z"
       style="fill:#ffffff;fill-opacity:0.984375;stroke:none" /><path
       inkscape:connector-curvature="0"
       id="path3046"
       d="m 15.411735,46.023295 c -0.654177,-0.179178 -0.591388,-0.480826 0.585271,-2.811776 0.724935,-1.436086 2.16832,-3.901675 3.207524,-5.479087 l 1.889461,-2.868021 2.262531,0 2.262533,0 -1.094177,2.648305 c -0.601797,1.456567 -1.508695,3.98305 -2.015329,5.614406 l -0.921152,2.966102 -2.721936,0.06539 c -1.497065,0.03597 -3.051691,-0.02493 -3.454726,-0.13532 z"
       style="fill:#ffffff;fill-opacity:0.984375;stroke:none" /><path
       inkscape:connector-curvature="0"
       id="path3048"
       d="m 11.206288,58.73268 c -0.795865,-0.211148 -0.676242,-0.883117 1.164205,-6.539824 0.9848,-3.026834 1.113794,-3.209907 2.125437,-3.016519 0.877555,0.167755 1.031928,0.385491 0.833588,1.17574 -0.13388,0.533421 -0.642058,2.701236 -1.129285,4.817366 -0.911283,3.957899 -1.019759,4.087002 -2.993945,3.563237 z"
       style="fill:#ffffff;fill-opacity:0.984375;stroke:none" /><path
       inkscape:connector-curvature="0"
       id="path3050"
       d="m 19.700391,59.13249 -4.071254,-0.144775 0.601547,-2.633686 c 0.330851,-1.448528 0.896606,-3.659641 1.257234,-4.913585 l 0.655687,-2.279899 3.991489,0.208781 c 2.195319,0.114829 4.104614,0.321906 4.242878,0.460169 0.138263,0.138264 -0.01241,2.309674 -0.334837,4.825356 -0.521715,4.070631 -0.678951,4.576632 -1.428858,4.59819 -0.463448,0.01332 -2.674697,-0.04092 -4.913886,-0.120551 l 0,0 z"
       style="fill:#ffffff;fill-opacity:0.984375;stroke:none" /><path
       inkscape:connector-curvature="0"
       id="path3052"
       d="m 27.797068,58.568458 c 0,-0.920245 0.735685,-6.300951 1.082894,-7.920149 0.199732,-0.931443 0.335933,-0.95339 5.916704,-0.95339 l 5.712266,0 0,4.872881 0,4.872882 -6.355932,0 c -6.133603,0 -6.355932,-0.03051 -6.355932,-0.872224 z"
       style="fill:#ffffff;fill-opacity:0.984375;stroke:none" /><path
       inkscape:connector-curvature="0"
       id="path3054"
       d="m 42.627576,54.5678 0,-4.872881 3.601695,-0.07567 c 1.980932,-0.04162 4.027862,-0.08929 4.548733,-0.105932 0.887298,-0.02836 0.988766,0.266974 1.608553,4.681807 l 0.661516,4.712073 -3.155536,0.26674 c -1.735544,0.146708 -4.080156,0.266741 -5.210248,0.266741 l -2.054713,0 0,-4.872882 z"
       style="fill:#ffffff;fill-opacity:0.984375;stroke:none" /><path
       inkscape:connector-curvature="0"
       id="path3056"
       d="m 54.513203,53.495926 c -0.290103,-2.122857 -0.461225,-3.923097 -0.380272,-4.000534 0.333327,-0.318847 8.409899,-0.864262 8.409899,-0.567924 0,0.177078 -0.524364,0.597157 -1.165254,0.93351 -1.59807,0.838701 -4.077701,3.488828 -5.311795,5.677027 l -1.02512,1.817661 -0.527458,-3.85974 z"
       style="fill:#ffffff;fill-opacity:0.984375;stroke:none" /><path
       inkscape:connector-curvature="0"
       id="path3058"
       d="m 65.241086,48.550336 c 0.163418,-0.163419 1.86363,-0.620711 3.778248,-1.016204 1.914618,-0.395493 3.792085,-0.845501 4.172149,-1.000017 0.509475,-0.207128 0.809827,0.05985 1.143213,1.016204 l 0.452186,1.297142 -4.921461,0 c -2.706803,0 -4.787754,-0.133706 -4.624335,-0.297125 z"
       style="fill:#ffffff;fill-opacity:0.984375;stroke:none" /><path
       inkscape:connector-curvature="0"
       id="path3060"
       d="m 58.305542,60.759755 c 0,-1.143012 2.936737,-4.589068 4.644869,-5.450429 2.369075,-1.194655 4.906522,-1.314571 4.483099,-0.211865 -0.156603,0.407839 -0.700734,1.933263 -1.20918,3.389831 l -0.924445,2.648305 -3.497172,0 c -1.923444,0 -3.497171,-0.169128 -3.497171,-0.375842 z"
       style="fill:#ffffff;fill-opacity:0.984375;stroke:none" /><path
       inkscape:connector-curvature="0"
       id="path3062"
       d="m 69.070275,57.851699 1.40778,-3.283899 3.553574,0.150886 c 1.954466,0.08299 3.600678,0.19365 3.658249,0.245917 0.05757,0.05227 -0.514463,1.461124 -1.271187,3.130792 l -1.375861,3.03576 -3.690167,0.0022 -3.690168,0.0022 1.40778,-3.283898 z"
       style="fill:#ffffff;fill-opacity:0.984375;stroke:none" /><path
       inkscape:connector-curvature="0"
       id="path3064"
       d="m 69.504465,70.351699 c 0.160134,-1.223517 0.493353,-3.034958 0.740486,-4.025424 0.441072,-1.767738 0.482637,-1.800848 2.260768,-1.800848 l 1.811436,0 -0.336484,1.588984 c -0.185066,0.87394 -0.464535,2.685381 -0.621042,4.025423 l -0.284558,2.436441 -1.930879,0 -1.930879,0 0.291152,-2.224576 z"
       style="fill:#ffffff;fill-opacity:0.984375;stroke:none" /><path
       inkscape:connector-curvature="0"
       id="path3066"
       d="m 61.107179,69.351556 c 0.893601,-5.138733 0.624948,-4.826129 4.147583,-4.826129 l 3.078552,0 -0.602946,3.072034 c -0.33162,1.689619 -0.684722,3.50106 -0.784671,4.025424 -0.168795,0.885556 -0.402914,0.95339 -3.290503,0.95339 l -3.108778,0 0.560763,-3.224719 0,0 z"
       style="fill:#ffffff;fill-opacity:0.984375;stroke:none" /><path
       inkscape:connector-curvature="0"
       id="path3068"
       d="m 55.580634,71.622885 c 0.06802,-0.524364 0.358181,-2.335805 0.644801,-4.025424 l 0.521126,-3.072034 1.415084,0 c 1.575326,0 1.573215,-0.0059 1.018879,2.839314 -0.217912,1.118462 -0.512569,2.74861 -0.654793,3.622551 -0.238366,1.464714 -0.368477,1.588983 -1.663681,1.588983 -1.21129,0 -1.388033,-0.131499 -1.281416,-0.95339 z"
       style="fill:#ffffff;fill-opacity:0.984375;stroke:none" /><path
       inkscape:connector-curvature="0"
       id="path3070"
       d="m 77.443926,69.987371 c 1.54218,-11.276664 6.446721,-17.337205 11.792958,-14.572559 3.139192,1.62334 5.825093,7.556357 6.953812,15.360615 l 0.260454,1.800848 -9.680639,0 -9.68064,0 0.354055,-2.588904 z"
       style="fill:#ffffff;fill-opacity:0.984375;stroke:none" /><path
       inkscape:connector-curvature="0"
       id="path3072"
       d="m 34.037508,69.716105 c 0.07509,-1.573093 0.240861,-3.861228 0.368368,-5.084745 l 0.231833,-2.224577 6.537306,0 6.537307,0 0,5.084746 0,5.084746 -6.905675,0 -6.905675,0 0.136536,-2.86017 z"
       style="fill:#ffffff;fill-opacity:0.984375;stroke:none" /><path
       inkscape:connector-curvature="0"
       id="path3074"
       d="m 21.511087,68.868648 c 0.174135,-2.039195 0.428951,-4.327331 0.566258,-5.084746 l 0.249649,-1.377119 4.959613,-3.11e-4 4.959613,-3.1e-4 -0.282253,4.76726 c -0.155239,2.621993 -0.298248,4.910268 -0.317796,5.085056 -0.01955,0.174788 -2.379177,0.317797 -5.243619,0.317797 l -5.208074,0 0.316609,-3.707627 z"
       style="fill:#ffffff;fill-opacity:0.984375;stroke:none" /><path
       inkscape:connector-curvature="0"
       id="path3076"
       d="m 8.7617,71.199156 c 0.017836,-0.757415 0.2561833,-3.09322 0.529661,-5.190678 l 0.4972321,-3.813559 4.6337859,-0.121066 c 2.548582,-0.06659 4.849622,-0.03824 5.113422,0.06299 0.458119,0.175796 0.364384,1.911456 -0.46653,8.638586 l -0.222435,1.800848 -5.058782,0 -5.0587829,0 0.032429,-1.377119 z"
       style="fill:#ffffff;fill-opacity:0.984375;stroke:none" /></g></svg>