<?xml version="1.0" encoding="UTF-8" standalone="no"?>
<svg
   xmlns:ns="http://ns.adobe.com/SaveForWeb/1.0/"
   xmlns:dc="http://purl.org/dc/elements/1.1/"
   xmlns:cc="http://creativecommons.org/ns#"
   xmlns:rdf="http://www.w3.org/1999/02/22-rdf-syntax-ns#"
   xmlns:svg="http://www.w3.org/2000/svg"
   xmlns="http://www.w3.org/2000/svg"
   xmlns:sodipodi="http://sodipodi.sourceforge.net/DTD/sodipodi-0.dtd"
   xmlns:inkscape="http://www.inkscape.org/namespaces/inkscape"
   version="1.1"
   x="0px"
   y="0px"
   width="15"
   height="15"
   viewBox="0 0 15 15"
   enable-background="new 0 0 100 100"
   xml:space="preserve"
   id="svg2"
   inkscape:version="0.91 r13725"
   sodipodi:docname="info.svg"><defs
     id="defs238" /><sodipodi:namedview
     pagecolor="#ffffff"
     bordercolor="#666666"
     borderopacity="1"
     objecttolerance="10"
     gridtolerance="10"
     guidetolerance="10"
     inkscape:pageopacity="0"
     inkscape:pageshadow="2"
     inkscape:window-width="1251"
     inkscape:window-height="858"
     id="namedview236"
     showgrid="false"
     inkscape:zoom="0.59"
     inkscape:cx="54.02496"
     inkscape:cy="21.504277"
     inkscape:window-x="53"
     inkscape:window-y="0"
     inkscape:window-maximized="0"
     inkscape:current-layer="svg2"
     fit-margin-top="0"
     fit-margin-left="0"
     fit-margin-right="0"
     fit-margin-bottom="0" /><metadata
     id="metadata4"><ns:sfw><ns:slices /><ns:sliceSourceBounds
         y="-8242"
         x="-8141"
         width="16383"
         height="16383"
         bottomLeftOrigin="true" /><ns:optimizationSettings /></ns:sfw><rdf:RDF><cc:Work
         rdf:about=""><dc:format>image/svg+xml</dc:format><dc:type
           rdf:resource="http://purl.org/dc/dcmitype/StillImage" /><dc:title></dc:title></cc:Work></rdf:RDF></metadata><g
     id="Captions"
     display="none"
     style="display:none"
     transform="translate(-15,-70)"><rect
       x="-744"
       display="inline"
       width="185"
       height="99"
       id="rect7"
       y="0"
       style="display:inline" /><rect
       x="-552"
       y="-36"
       display="inline"
       width="100"
       height="30"
       id="rect9"
       style="display:inline" /><text
       transform="translate(-486,-19.5)"
       display="inline"
       font-size="2.4"
       id="text11"
       style="font-size:2.4000001px;display:inline">http://thenounproject.com</text>
<text
       transform="translate(-544.834,-24.5)"
       display="inline"
       id="text13"
       style="display:inline"><tspan
         x="0"
         y="0"
         font-size="6.1578"
         id="tspan15"
         style="font-size:6.1578002px">The Noun Project</tspan><tspan
         x="1.12"
         y="4.8000002"
         font-size="4"
         id="tspan17"
         style="font-size:4px">Icon Template</tspan></text>
<text
       transform="translate(-730.5,10.5)"
       display="inline"
       font-size="6.1578"
       id="text19"
       style="font-size:6.1578002px;display:inline">Reminders</text>
<line
       display="inline"
       stroke-miterlimit="10"
       x1="-544"
       y1="-14.5"
       x2="-534"
       y2="-14.5"
       id="line21"
       style="display:inline;stroke-miterlimit:10" /><line
       display="inline"
       stroke-miterlimit="10"
       x1="-731"
       y1="16.5"
       x2="-714"
       y2="16.5"
       id="line23"
       style="display:inline;stroke-miterlimit:10" /><g
       display="inline"
       id="g25"
       style="display:inline"><g
         id="g27"><g
           id="g29"><rect
             x="-722.802"
             y="31.318001"
             width="8.7209997"
             height="8.6420002"
             id="rect31" /><path
             d="m -716.455,42.312 4.747,0 0,-4.703 -4.747,0 0,4.703 z m 5.189,0.437 -5.63,0 0,-5.579 5.63,0 0,5.579 0,0 z m -6.955,1.313 8.279,0 0,-8.203 -8.279,0 0,8.203 0,0 z m 8.721,0.438 -9.163,0 0,-9.079 9.163,0 0,9.079 0,0 z"
             id="path33"
             inkscape:connector-curvature="0" /><polygon
             points="-718.149,44.133 -718.292,43.991 -710.013,35.787 -709.871,35.929 "
             id="polygon35" /></g></g></g><rect
       x="-731"
       y="58"
       display="inline"
       width="35"
       height="32.5"
       id="rect37"
       style="display:inline" /><text
       transform="translate(-731,60.1572)"
       display="inline"
       id="text39"
       style="display:inline"><tspan
         x="0"
         y="0"
         font-size="3"
         id="tspan41"
         style="font-size:3px">Strokes</tspan><tspan
         x="0"
         y="5"
         font-size="2.4"
         id="tspan43"
         style="font-size:2.4000001px">Try to keep strokes at 4px</tspan><tspan
         x="0"
         y="10"
         font-size="2.4"
         id="tspan45"
         style="font-size:2.4000001px">Minimum stroke weight is 2px</tspan><tspan
         x="0"
         y="14.5"
         font-size="2.4"
         id="tspan47"
         style="font-size:2.4000001px">For thicker strokes use even </tspan><tspan
         x="0"
         y="17.5"
         font-size="2.4"
         id="tspan49"
         style="font-size:2.4000001px">numbers: 6px, 8px etc.</tspan><tspan
         x="0"
         y="22"
         font-size="2.4"
         id="tspan51"
         style="font-size:2.4000001px">Remember to expand strokes </tspan><tspan
         x="0"
         y="25"
         font-size="2.4"
         id="tspan53"
         style="font-size:2.4000001px">before saving as an SVG </tspan></text>
<rect
       x="-688.5"
       y="58"
       display="inline"
       width="35"
       height="32.5"
       id="rect55"
       style="display:inline" /><text
       transform="translate(-688.5,60.1572)"
       display="inline"
       id="text57"
       style="display:inline"><tspan
         x="0"
         y="0"
         font-size="3"
         id="tspan59"
         style="font-size:3px">Size</tspan><tspan
         x="0"
         y="5"
         font-size="2.4"
         id="tspan61"
         style="font-size:2.4000001px">Cannot be wider or taller than </tspan><tspan
         x="0"
         y="8.5"
         font-size="2.4"
         id="tspan63"
         style="font-size:2.4000001px">100px (artboar size)</tspan><tspan
         x="0"
         y="13.5"
         font-size="2.4"
         id="tspan65"
         style="font-size:2.4000001px">Scale your icon to fill as much of </tspan><tspan
         x="0"
         y="16.5"
         font-size="2.4"
         id="tspan67"
         style="font-size:2.4000001px">the Safe Area as possible (within </tspan><tspan
         x="0"
         y="19.5"
         font-size="2.4"
         id="tspan69"
         style="font-size:2.4000001px">the guides)</tspan></text>
<rect
       x="-646"
       y="58"
       display="inline"
       width="35"
       height="32.5"
       id="rect71"
       style="display:inline" /><text
       transform="translate(-646,60.1572)"
       display="inline"
       id="text73"
       style="display:inline"><tspan
         x="0"
         y="0"
         font-size="3"
         id="tspan75"
         style="font-size:3px">Ungroup</tspan><tspan
         x="0"
         y="5"
         font-size="2.4"
         id="tspan77"
         style="font-size:2.4000001px">If your design has more than one </tspan><tspan
         x="0"
         y="8"
         font-size="2.4"
         id="tspan79"
         style="font-size:2.4000001px">shape, make sure to ungroup.</tspan></text>
<rect
       x="-602"
       y="58"
       display="inline"
       width="35"
       height="32.5"
       id="rect81"
       style="display:inline" /><text
       transform="translate(-602,60.1572)"
       display="inline"
       id="text83"
       style="display:inline"><tspan
         x="0"
         y="0"
         font-size="3"
         id="tspan85"
         style="font-size:3px">Save as</tspan><tspan
         x="0"
         y="5"
         font-size="2.4"
         id="tspan87"
         style="font-size:2.4000001px">Save as .SVG and make sure </tspan><tspan
         x="0"
         y="8"
         font-size="2.4"
         id="tspan89"
         style="font-size:2.4000001px">“Use Artboards” is checked.</tspan></text>
<text
       transform="matrix(1.0074,0,0,1,-677.542,30.5933)"
       display="inline"
       font-size="2.5731"
       id="text91"
       style="font-size:2.57310009px;display:inline">100px</text>
<text
       transform="matrix(1.0074,0,0,1,-593,39)"
       display="inline"
       font-size="5.1462"
       id="text93"
       style="font-size:5.14620018px;display:inline">.SVG</text>
<rect
       x="-678.51398"
       y="34.814999"
       display="inline"
       width="10.261"
       height="10.185"
       id="rect95"
       style="display:inline" /><rect
       x="-678.47699"
       y="31.766001"
       display="inline"
       width="0.52200001"
       height="2.3369999"
       id="rect97"
       style="display:inline" /><rect
       x="-668.81201"
       y="31.766001"
       display="inline"
       width="0.523"
       height="2.3369999"
       id="rect99"
       style="display:inline" /><rect
       x="-679"
       y="32.337002"
       display="inline"
       width="11.233"
       height="0.57200003"
       id="rect101"
       style="display:inline" /><g
       display="inline"
       id="g103"
       style="display:inline"><rect
         x="-635.80499"
         y="33.844002"
         width="10.305"
         height="10.156"
         id="rect105" /><rect
         x="-628.80902"
         y="28.707001"
         width="3.3080001"
         height="3.2609999"
         id="rect107" /></g><rect
       x="-730.5"
       y="22.5"
       display="inline"
       stroke-miterlimit="10"
       width="30"
       height="30"
       id="rect109"
       style="display:inline;stroke-miterlimit:10" /><rect
       x="-688.5"
       y="22.5"
       display="inline"
       stroke-miterlimit="10"
       width="30"
       height="30"
       id="rect111"
       style="display:inline;stroke-miterlimit:10" /><rect
       x="-645.5"
       y="22.5"
       display="inline"
       stroke-miterlimit="10"
       width="30"
       height="30"
       id="rect113"
       style="display:inline;stroke-miterlimit:10" /><rect
       x="-601.5"
       y="22.5"
       display="inline"
       stroke-miterlimit="10"
       width="30"
       height="30"
       id="rect115"
       style="display:inline;stroke-miterlimit:10" /></g><g
     id="g168"
     transform="matrix(0.21428571,0,0,0.21428571,-3.2142857,-3.214286)"><g
       id="g170"><path
         style="fill:#ffffff"
         inkscape:connector-curvature="0"
         id="path172"
         d="M 50,85 C 30.7,85 15,69.299 15,50 15,30.701 30.7,15 50,15 69.299,15 85,30.701 85,50 85,69.299 69.299,85 50,85 Z M 50,21.604 C 34.342,21.604 21.604,34.342 21.604,50 21.604,65.658 34.342,78.396 50,78.396 65.657,78.396 78.396,65.658 78.396,50 78.396,34.342 65.657,21.604 50,21.604 Z" /></g><g
       id="g174"><g
         id="g176"><path
           style="fill:#ffffff"
           inkscape:connector-curvature="0"
           id="path178"
           d="m 41.602,66.292 c 0.154,-0.68 0.384,-1.582 0.692,-2.703 l 4.15,-15.159 c 0.045,-0.176 0.082,-0.352 0.115,-0.528 0.033,-0.175 0.05,-0.34 0.05,-0.494 0,-0.9 -0.285,-1.46 -0.855,-1.681 -0.571,-0.219 -1.613,-0.362 -3.127,-0.428 l 0,-1.78 c 1.266,-0.088 3.104,-0.269 5.514,-0.544 2.411,-0.274 4.118,-0.511 5.121,-0.708 l 2.88,-0.561 -5.24,19.214 c -0.439,1.647 -0.735,2.79 -0.89,3.428 -0.395,1.626 -0.594,2.681 -0.594,3.163 0,0.484 0.11,0.797 0.331,0.939 0.219,0.144 0.461,0.215 0.726,0.215 0.683,0 1.53,-0.582 2.543,-1.747 1.014,-1.164 1.906,-2.384 2.677,-3.658 l 1.483,0.956 c -2.2,3.229 -3.884,5.404 -5.051,6.525 -1.914,1.846 -3.959,2.769 -6.137,2.769 -1.232,0 -2.338,-0.378 -3.316,-1.138 -0.979,-0.757 -1.468,-1.916 -1.468,-3.477 0,-0.548 0.132,-1.416 0.396,-2.603 z M 57.475,27.963 c 0.879,0.879 1.319,1.945 1.319,3.197 0,1.252 -0.44,2.324 -1.319,3.213 -0.879,0.89 -1.944,1.335 -3.197,1.335 -1.252,0 -2.323,-0.445 -3.213,-1.335 -0.89,-0.89 -1.335,-1.961 -1.335,-3.213 0,-1.252 0.445,-2.317 1.335,-3.197 0.89,-0.878 1.961,-1.318 3.213,-1.318 1.252,0 2.318,0.439 3.197,1.318 z" /></g></g><path
       style="fill:#0000ff;fill-opacity:0.984375;stroke:none"
       d="M 47.994817,78.218723 C 44.077485,77.852001 41.225728,77.098444 37.88259,75.546638 33.28268,73.411466 28.645747,69.275044 25.99225,64.939744 23.133207,60.268619 21.754632,55.408946 21.754632,50.001526 c 0,-5.407419 1.378575,-10.267093 4.237618,-14.938218 2.117954,-3.460326 5.616989,-6.92418 9.310551,-9.216936 6.859904,-4.258243 15.747291,-5.288201 23.47839,-2.720906 11.67593,3.877269 19.472226,14.637914 19.472226,26.87606 0,7.588324 -2.853294,14.50039 -8.211627,19.892551 -4.729985,4.759848 -10.815135,7.637801 -17.477745,8.266044 -1.550825,0.146234 -3.382246,0.169722 -4.569228,0.0586 l 0,0 z m 0.668286,-5.121483 c 2.100762,-0.762216 4.285955,-2.815885 6.944795,-6.526792 0.932556,-1.301556 1.674119,-2.382596 1.647919,-2.40231 -0.352624,-0.26533 -1.469544,-0.983265 -1.529703,-0.983265 -0.04388,0 -0.363083,0.421343 -0.709338,0.936317 -1.333963,1.983971 -2.906944,3.729311 -3.757607,4.169349 -0.716843,0.370816 -1.091415,0.363108 -1.48508,-0.03056 -0.586157,-0.586157 -0.371779,-1.54116 3.676238,-16.376791 1.527446,-5.597956 2.755605,-10.199669 2.729245,-10.226031 -0.02636,-0.02636 -0.698944,0.08602 -1.494626,0.24974 -2.08929,0.429887 -5.124594,0.852283 -8.620055,1.199573 -1.679429,0.166859 -3.145702,0.30338 -3.258384,0.30338 -0.152049,0 -0.204878,0.248316 -0.204878,0.962989 l 0,0.962991 0.861412,0.0954 c 1.564881,0.173304 2.39747,0.386072 2.664232,0.680841 0.630095,0.696247 0.530319,1.238592 -1.776644,9.657168 -2.596803,9.476265 -2.89554,10.639799 -3.101196,12.078673 -0.388055,2.715019 0.619069,4.592009 2.900108,5.404974 1.057327,0.376831 3.254843,0.301051 4.513562,-0.155647 l 0,0 z m 7.592625,-37.766433 c 1.405273,-0.723176 2.265724,-1.883016 2.498584,-3.367951 0.244303,-1.557901 -0.202229,-3.004146 -1.251505,-4.053423 -0.852666,-0.852666 -1.626271,-1.171173 -3.031941,-1.248304 -1.158717,-0.06358 -1.301984,-0.03709 -2.205791,0.407852 -1.021699,0.502981 -1.842789,1.341102 -2.23614,2.28252 -0.54381,1.30152 -0.420132,3.043074 0.297085,4.183363 0.50508,0.803017 1.672455,1.761496 2.449126,2.010869 0.982943,0.3156 2.649658,0.212681 3.480582,-0.214926 l 0,0 z"
       id="path3274"
       inkscape:connector-curvature="0" /></g><g
     id="g218"
     transform="translate(-15,-70)" /></svg>