<?xml version="1.0" encoding="UTF-8" standalone="no"?>
<!-- Created with Inkscape (http://www.inkscape.org/) -->

<svg
   xmlns:osb="http://www.openswatchbook.org/uri/2009/osb"
   xmlns:dc="http://purl.org/dc/elements/1.1/"
   xmlns:cc="http://creativecommons.org/ns#"
   xmlns:rdf="http://www.w3.org/1999/02/22-rdf-syntax-ns#"
   xmlns:svg="http://www.w3.org/2000/svg"
   xmlns="http://www.w3.org/2000/svg"
   xmlns:sodipodi="http://sodipodi.sourceforge.net/DTD/sodipodi-0.dtd"
   xmlns:inkscape="http://www.inkscape.org/namespaces/inkscape"
   width="210"
   height="101"
   id="svg3773"
   version="1.1"
   inkscape:version="0.48.2 r9819"
   sodipodi:docname="New document 2">
  <defs
     id="defs3775">
    <linearGradient
       osb:paint="solid"
       id="linearGradient3763">
      <stop
         id="stop3765"
         offset="0"
         style="stop-color:#ffffff;stop-opacity:1;" />
    </linearGradient>
  </defs>
  <sodipodi:namedview
     id="base"
     pagecolor="#ffffff"
     bordercolor="#666666"
     borderopacity="1.0"
     inkscape:pageopacity="0.0"
     inkscape:pageshadow="2"
     inkscape:zoom="1.979899"
     inkscape:cx="129.68172"
     inkscape:cy="57.2567"
     inkscape:document-units="px"
     inkscape:current-layer="layer1"
     showgrid="false"
     inkscape:window-width="948"
     inkscape:window-height="704"
     inkscape:window-x="113"
     inkscape:window-y="40"
     inkscape:window-maximized="0" />
  <metadata
     id="metadata3778">
    <rdf:RDF>
      <cc:Work
         rdf:about="">
        <dc:format>image/svg+xml</dc:format>
        <dc:type
           rdf:resource="http://purl.org/dc/dcmitype/StillImage" />
        <dc:title></dc:title>
      </cc:Work>
    </rdf:RDF>
  </metadata>
  <g
     inkscape:label="Layer 1"
     inkscape:groupmode="layer"
     id="layer1"
     transform="translate(0,-951.36218)">
    <g
       id="g3865"
       transform="translate(0.49999907,950.86218)">
      <path
         transform="matrix(1.1606123,0,0,1.3116979,-7.2783648,-14.244063)"
         d="m 90.244308,49.358974 a 40.461651,35.801147 0 1 1 -80.9233012,0 40.461651,35.801147 0 1 1 80.9233012,0 z"
         sodipodi:ry="35.801147"
         sodipodi:rx="40.461651"
         sodipodi:cy="49.358974"
         sodipodi:cx="49.782658"
         id="path2993"
         style="fill:#ffffff;fill-opacity:1;stroke:#000000;stroke-width:4.92721558;stroke-miterlimit:4;stroke-opacity:1;stroke-dasharray:none"
         sodipodi:type="arc" />
      <polygon
         transform="matrix(0.65000001,0,0,0.65000001,17.999999,18.003575)"
         style="fill:#ff0000"
         id="polygon3"
         points="0,32.713 32.569,32.713 32.569,0 67.298,0 67.298,32.713 100,32.713 100,67.333 67.562,67.333 67.562,99.989 32.702,99.989 32.702,67.333 0,67.333 " />
    </g>
    <g
       id="g3944"
       transform="translate(108.5,950.86218)">
      <path
         transform="matrix(1.0062771,0,0,1.0592391,0.61253373,0.00661145)"
         d="m 96.18644,47.669491 c 0,24.45498 -20.868084,44.279659 -46.610169,44.279659 -25.742085,0 -46.6101684,-19.824679 -46.6101684,-44.279659 0,-24.454981 20.8680834,-44.2796595 46.6101684,-44.2796595 25.742085,0 46.610169,19.8246785 46.610169,44.2796595 z"
         sodipodi:ry="44.279659"
         sodipodi:rx="46.610168"
         sodipodi:cy="47.669491"
         sodipodi:cx="49.576271"
         id="path3003"
         style="fill:#f7c088;fill-opacity:1;stroke:#000000;stroke-width:6;stroke-miterlimit:4;stroke-opacity:1;stroke-dasharray:none"
         sodipodi:type="arc" />
      <path
         inkscape:connector-curvature="0"
         id="path3"
         d="M 67.807,71.474" />
      <g
         transform="matrix(0.63532283,0,0,0.63532283,20.500112,18.733858)"
         id="g2996">
        <path
           inkscape:connector-curvature="0"
           d="m 90.031,25.653 c -2.772,-1.852 -4.852,-0.92 -4.852,-0.92 -2.636,0.667 -4.14,0.659 -4.875,0.571 V 24.66 c 0.713,-0.491 1.183,-1.316 1.183,-2.258 0,-1.493 -1.219,-2.712 -2.712,-2.712 -1.506,0 -2.725,1.219 -2.725,2.712 0,0.845 0.386,1.588 0.98,2.089 V 48.072 L 67.685,40.935 47.875,56.23 V 84.705 H 87.713 V 56.23 L 80.305,50.573 V 35.02 c 0.686,0.103 2.212,0.152 4.994,-0.56 0,0 2.08,-0.944 4.852,0.932 0,0 0.586,0.454 4.289,2.892 V 28.57 c -3.704,-2.426 -4.409,-2.917 -4.409,-2.917 z"
           id="path5" />
        <polygon
           points="23.5,71.788 21.826,100 15.686,100 15.23,61.548 33.775,61.548 33.273,100 27.634,100 25.674,71.788 "
           id="polygon7" />
        <path
           inkscape:connector-curvature="0"
           d="M 37.6,10.252 C 31.745,9.319 24.683,9.248 24.683,9.248 h -0.012 c 0,0 -7.073,0.071 -12.929,1.004 0,0 -0.048,1.338 0.598,1.959 l 5.424,-0.215 c -0.19,0.657 -0.299,1.362 -0.299,2.079 0,4.026 3.227,7.289 7.206,7.289 l 0,0 c 3.991,0 7.217,-3.263 7.217,-7.289 0,-0.717 -0.107,-1.422 -0.299,-2.079 l 5.437,0.215 C 37.646,11.59 37.6,10.252 37.6,10.252 z"
           id="path9" />
        <polygon
           points="16.558,7.516 32.771,7.516 32.771,3.99 28.423,0 20.895,0 16.558,3.99 "
           id="polygon11" />
        <path
           inkscape:connector-curvature="0"
           d="M 48.233,38.559 36.129,25.463 c -1.685,-2.067 -3.07,-2.067 -3.07,-2.067 H 15.924 c 0,0 -1.386,0 -3.07,2.067 L 0.749,38.559 c 0,0 -1.792,1.386 0.167,3.656 L 15.23,56.278 v 2.558 H 33.751 V 56.278 L 48.065,42.215 c 1.96,-2.271 0.168,-3.656 0.168,-3.656 z m -37.471,6.835 c 0,0 -2.139,-3.932 -2.545,-4.577 L 7.703,39.885 14.944,33.17 c 0,0 0.167,-0.228 0.335,0.299 l 0.179,15.987 c 0,0 -1.792,-0.239 -4.696,-4.062 z m 30.004,-4.578 c -0.406,0.646 -2.545,4.577 -2.545,4.577 -2.904,3.823 -4.696,4.062 -4.696,4.062 l 0.179,-15.987 c 0.168,-0.526 0.335,-0.299 0.335,-0.299 l 7.241,6.715 -0.514,0.932 z"
           id="path13" />
      </g>
    </g>
  </g>
</svg>
