<svg xmlns="http://www.w3.org/2000/svg" xmlns:xlink="http://www.w3.org/1999/xlink" version="1.1" id="Your_Icon" x="0px" y="0px" width="100px" height="100px" viewBox="0 0 100 100" enable-background="new 0 0 100 100" xml:space="preserve">
<path fill="#000000" d="M82.536,52.092c-0.385,0-0.763,0.03-1.137,0.074l-5.793-0.022C69.641,40.27,57.351,32.098,43.182,32.098  c-9.283,0-17.759,3.509-24.181,9.266c-0.102-0.005-0.163-0.009-0.163-0.009l-0.01,0.158c-2.778,2.521-5.156,5.471-7.048,8.736  h-0.005v0.01c-3.087,5.333-4.865,11.515-4.865,18.109V70H50.1h19.974h3.321h6.057H95v-1.632C95,59.394,89.408,52.092,82.536,52.092z   M76.147,66.735H74.55h-1.141c0.207-2.333,0.857-4.472,1.821-6.253c0.683-1.266,1.524-2.352,2.485-3.191  c1.145-1,2.456-1.651,3.858-1.859l0.976,0.004l0.986,0.004c4.225,0.65,7.601,5.352,8.128,11.296H79.41H76.147z M60.762,66.735  h-1.636h-1.017c0.175-1.095,0.455-2.265,0.8-3.319c0.249-0.766,0.529-1.451,0.816-2.01c0.21,0,0.414,0,0.624,0.001  c1.088,0.003,2.18,0.005,3.242,0.005c0.762,0,1.497-0.002,2.244-0.004c-0.646,1.52-1.198,3.522-1.465,5.327H60.762z M43.824,58.592  c-0.717,0.01-1.463,0.016-2.201,0.021c-0.033-1.991-0.076-4.094-0.134-6.227c0.736-0.006,1.473-0.011,2.186-0.021  c2.332-0.028,4.552-0.078,6.667-0.143c0.524,1.953,0.965,4.029,1.309,6.198C49.182,58.5,46.574,58.559,43.824,58.592z   M29.729,58.594c-0.696-0.008-1.369-0.018-2.046-0.025c0.342-2.183,0.773-4.273,1.294-6.232c0.773,0.011,1.554,0.021,2.354,0.029  c2.187,0.023,4.318,0.035,6.38,0.035c0.727,0,1.435-0.003,2.146-0.006c0.056,2.135,0.1,4.238,0.134,6.229  C36.731,58.641,33.301,58.631,29.729,58.594z M18.551,58.396c-0.677-0.018-1.323-0.033-1.941-0.05  c0.615-2.175,1.396-4.263,2.331-6.224c0.771,0.021,1.576,0.043,2.44,0.064c1.801,0.045,3.806,0.088,5.926,0.123  c-0.512,1.971-0.94,4.054-1.275,6.234C23.311,58.502,20.775,58.451,18.551,58.396z M14.551,51.986  c0.746,0.025,1.627,0.055,2.62,0.084c-0.899,1.976-1.651,4.061-2.242,6.23c-1.207-0.034-2.262-0.066-3.12-0.095  C12.517,56.027,13.427,53.94,14.551,51.986z M34.049,43.469c0.161,0.002,0.311,0.002,0.47,0.003  c-0.869,2.194-1.635,4.628-2.284,7.268c-0.297-0.002-0.585-0.004-0.885-0.007l-0.01,0.816l0.008-0.816  c-2.552-0.027-4.972-0.068-7.197-0.115c1.189-2.656,2.585-5.103,4.179-7.269C30.095,43.398,32.015,43.441,34.049,43.469z   M59.548,42.538c1.679,2.141,3.146,4.566,4.395,7.198c-0.13,0.014-0.252,0.029-0.386,0.044c-2.179,0.231-4.685,0.421-7.448,0.57  c-0.661-2.635-1.442-5.068-2.328-7.26c1.806-0.123,3.472-0.27,4.953-0.444C59.018,42.612,59.275,42.574,59.548,42.538z   M60.566,52.32c-2.929,0.62-5.518,2.57-7.388,5.371c-0.32-1.921-0.709-3.766-1.168-5.523c0.673-0.024,1.341-0.049,1.986-0.078  c2.26-0.099,4.342-0.228,6.273-0.377C60.369,51.914,60.472,52.115,60.566,52.32z M74.259,56.233  c-0.096,0.11-0.191,0.222-0.284,0.337c-0.373,0.461-0.729,0.941-1.059,1.461c-0.341,0.542-0.646,1.123-0.936,1.723  c-0.157,0-0.325,0.002-0.484,0.002c-0.553,0.004-1.114,0.006-1.677,0.009c-1.672,0.007-3.377,0.013-5.124,0.014  c0.062-0.164,0.127-0.329,0.212-0.509c0.257-0.548,0.601-1.148,0.977-1.744c0.509-0.805,1.062-1.574,1.53-2.15l6.083,0.025  l1.533,0.005C74.764,55.669,74.507,55.944,74.259,56.233z M58.496,59.771c-0.001-0.006-0.001-0.01-0.001-0.015  c-0.08,0.005-0.169,0.008-0.249,0.013c-0.847-0.004-1.705-0.008-2.564-0.012c0.353-0.562,0.738-1.08,1.152-1.55  c1.399-1.583,3.127-2.601,5.018-2.806c0.232-0.025,0.467-0.047,0.704-0.047l1.016,0.004l1.806,0.008  c-0.396,0.553-0.814,1.18-1.205,1.84c-0.104,0.174-0.207,0.347-0.304,0.523c-0.103,0.185-0.19,0.367-0.282,0.551  c-0.198,0.396-0.363,0.781-0.491,1.15c-0.041,0.116-0.089,0.236-0.121,0.348c-0.931-0.001-1.878-0.002-2.829-0.005  C59.595,59.773,59.051,59.772,58.496,59.771z M33.915,50.755c0.669-2.656,1.455-5.102,2.35-7.27c0.99,0.008,1.997,0.021,2.957,0.021  c1.43,0,2.823-0.009,4.171-0.027c0.247-0.003,0.475-0.011,0.719-0.016c0.099,2.305,0.179,4.767,0.244,7.259  c-0.236,0.003-0.462,0.008-0.7,0.011C40.604,50.772,37.334,50.778,33.915,50.755z M41.303,35.455  c0.03-0.002,0.061-0.003,0.091-0.005c2.738,1.329,5.094,3.428,7.012,6.271c-1.615,0.058-3.28,0.104-5.035,0.127  c-0.56,0.008-1.162,0.006-1.737,0.01C41.542,38.878,41.432,36.763,41.303,35.455z M45.987,50.697  c-0.065-2.495-0.145-4.959-0.241-7.268c1.922-0.044,3.789-0.102,5.512-0.188c0.277-0.015,0.535-0.031,0.806-0.046  c0.909,2.161,1.703,4.596,2.38,7.24c-0.177,0.008-0.339,0.018-0.518,0.025C51.479,50.566,48.813,50.646,45.987,50.697z   M51.176,41.61c-0.284,0.015-0.6,0.022-0.89,0.036c-1.463-2.366-3.191-4.309-5.164-5.809c4.064,1.264,7.628,3.088,10.625,5.465  C54.331,41.424,52.812,41.528,51.176,41.61z M39.674,35.573c0.127,1.249,0.236,3.364,0.327,6.295  c-1.922,0.005-3.887-0.001-5.929-0.031c-0.432-0.006-0.848-0.014-1.269-0.021C34.682,39.012,36.991,36.926,39.674,35.573z   M53.436,66.735c0.174-1.95,0.657-3.765,1.371-5.349c1.052,0.006,2.091,0.01,3.124,0.014c-0.65,1.52-1.203,3.527-1.47,5.335H53.436z   M67.636,61.406c0.865-0.003,1.707-0.008,2.552-0.012c0.37-0.002,0.741-0.004,1.106-0.006c-0.274,0.752-0.514,1.529-0.698,2.34  c-0.222,0.969-0.379,1.973-0.459,3.007H66.02C66.322,64.844,66.954,62.73,67.636,61.406z M62.562,52.092  c-0.096,0-0.188,0.016-0.284,0.02c-0.084-0.186-0.177-0.361-0.263-0.544c0.585-0.054,1.167-0.106,1.714-0.165  c2.923-0.311,5.229-0.686,7-1.13c0.401,0.609,0.797,1.221,1.157,1.857L62.562,52.092z M69.748,48.831  c-1.14,0.257-2.514,0.489-4.097,0.698c-1.213-2.64-2.649-5.071-4.276-7.259c0.553-0.091,1.076-0.187,1.566-0.287  C65.53,43.926,67.829,46.226,69.748,48.831z M61.098,40.663c-0.792,0.13-1.631,0.252-2.555,0.362  c-0.173,0.02-0.36,0.038-0.539,0.057c-2.153-1.909-4.609-3.521-7.348-4.831C54.419,37.126,57.948,38.618,61.098,40.663z   M35.606,36.276c-1.789,1.462-3.357,3.307-4.702,5.503c-1.669-0.036-3.245-0.078-4.657-0.123c-0.815-0.026-1.558-0.053-2.264-0.079  C27.426,39.104,31.354,37.28,35.606,36.276z M21.979,43.133c1.16,0.047,2.585,0.102,4.217,0.154  c0.061,0.001,0.131,0.004,0.191,0.005c-1.524,2.204-2.871,4.642-4.007,7.286c-0.317-0.007-0.65-0.014-0.958-0.022  c-2.31-0.057-4.292-0.117-5.864-0.169C17.337,47.664,19.498,45.22,21.979,43.133z M11.321,59.822  c1.645,0.055,4.116,0.131,7.192,0.206c0.826,0.021,1.696,0.04,2.598,0.06c-0.641,2.816-0.905,5.181-1.001,6.647h-9.895  C10.332,64.354,10.724,62.047,11.321,59.822z M22.778,60.12c2.165,0.042,4.482,0.079,6.935,0.104c0.91,0.01,1.803,0.017,2.694,0.022  c-0.355,2.75-0.502,5.051-0.558,6.488H21.75C21.851,65.271,22.122,62.91,22.778,60.12z M33.486,66.735  c0.058-1.443,0.207-3.753,0.567-6.478c0.988,0.004,1.972,0.008,2.935,0.008c2.373,0,4.664-0.014,6.855-0.041  c0.951-0.012,1.882-0.027,2.804-0.045c0.035,2.585,0.054,4.873,0.063,6.556H33.486z M48.343,66.735  c-0.01-1.69-0.029-3.991-0.065-6.591c1.23-0.027,2.429-0.061,3.592-0.098c-0.914,1.997-1.52,4.26-1.707,6.688H48.343z"/>
</svg>