<?xml version="1.0" encoding="UTF-8" standalone="no"?>
<svg
   xmlns:dc="http://purl.org/dc/elements/1.1/"
   xmlns:cc="http://creativecommons.org/ns#"
   xmlns:rdf="http://www.w3.org/1999/02/22-rdf-syntax-ns#"
   xmlns:svg="http://www.w3.org/2000/svg"
   xmlns="http://www.w3.org/2000/svg"
   xmlns:sodipodi="http://sodipodi.sourceforge.net/DTD/sodipodi-0.dtd"
   xmlns:inkscape="http://www.inkscape.org/namespaces/inkscape"
   version="1.1"
   id="Your_Icon"
   x="0px"
   y="0px"
   width="100.20385"
   height="100"
   viewBox="0 0 100.20385 100"
   enable-background="new 0 0 100 100"
   xml:space="preserve"
   inkscape:version="0.48.2 r9819"
   sodipodi:docname="icon_26547.svg"><metadata
   id="metadata9"><rdf:RDF><cc:Work
       rdf:about=""><dc:format>image/svg+xml</dc:format><dc:type
         rdf:resource="http://purl.org/dc/dcmitype/StillImage" /><dc:title></dc:title></cc:Work></rdf:RDF></metadata><defs
   id="defs7" /><sodipodi:namedview
   pagecolor="#ffffff"
   bordercolor="#666666"
   borderopacity="1"
   objecttolerance="10"
   gridtolerance="10"
   guidetolerance="10"
   inkscape:pageopacity="0"
   inkscape:pageshadow="2"
   inkscape:window-width="1289"
   inkscape:window-height="803"
   id="namedview5"
   showgrid="false"
   inkscape:zoom="2.36"
   inkscape:cx="50.000458"
   inkscape:cy="49.881352"
   inkscape:window-x="0"
   inkscape:window-y="0"
   inkscape:window-maximized="0"
   inkscape:current-layer="Your_Icon"
   fit-margin-top="0"
   fit-margin-left="0"
   fit-margin-right="0"
   fit-margin-bottom="0" />
<rect
   style="fill:#ffffff;fill-opacity:0.984375;stroke:none"
   id="rect2986"
   width="100"
   height="100"
   x="0"
   y="0" /><path
   d="m 86.720628,48.999219 c -0.416482,0 -0.825393,0.04878 -1.229976,0.120328 l -6.266711,-0.03577 C 72.771165,29.775972 59.476174,16.487834 44.148531,16.487834 c -10.042099,0 -19.211208,5.705835 -26.158355,15.067045 -0.11034,-0.0081 -0.176329,-0.01463 -0.176329,-0.01463 l -0.01082,0.256917 c -3.005165,4.09929 -5.577621,8.896158 -7.624337,14.205235 h -0.0054 v 0.01626 C 6.83385,54.690418 4.9104575,64.742703 4.9104575,75.464923 v 2.653725 h 46.7217795 21.607336 3.592567 6.5523 16.81941 v -2.653725 c 0,-14.592236 -6.049277,-26.465704 -13.483222,-26.465704 z M 79.80918,72.809572 h -1.727591 -1.234304 c 0.223927,-3.793591 0.92708,-7.271727 1.969909,-10.167735 0.738851,-2.058588 1.648623,-3.824486 2.688206,-5.188748 1.23863,-1.626057 2.656835,-2.68462 4.173481,-3.02284 l 1.055811,0.0065 1.066628,0.0065 c 4.570491,1.056937 8.222557,8.702657 8.792651,18.36794 H 83.339006 79.80918 z m -16.643079,0 H 61.39632 60.296158 c 0.189309,-1.780533 0.492206,-3.683019 0.865417,-5.396883 0.269363,-1.24556 0.572259,-2.359409 0.882728,-3.268375 0.227172,0 0.447854,0 0.675026,0.0016 1.176969,0.0049 2.358266,0.0081 3.507108,0.0081 0.824311,0 1.619415,-0.0033 2.427499,-0.0065 -0.698825,2.471607 -1.295964,5.726973 -1.584797,8.662006 H 63.166101 z M 44.843029,59.568589 c -0.775631,0.01626 -1.582634,0.02602 -2.380982,0.03415 -0.0357,-3.23748 -0.08221,-6.657078 -0.144958,-10.125458 0.796185,-0.0098 1.593452,-0.01789 2.364756,-0.03415 2.522695,-0.04553 4.924231,-0.126832 7.212181,-0.232526 0.566849,3.175689 1.043911,6.551384 1.416041,10.078302 -2.670897,0.130084 -5.492162,0.226022 -8.467038,0.279681 z m -15.247591,0.0033 c -0.752914,-0.01301 -1.480948,-0.02927 -2.213308,-0.04065 0.369967,-3.549682 0.836211,-6.948142 1.399815,-10.133587 0.83621,0.01789 1.681075,0.03415 2.546494,0.04715 2.365837,0.0374 4.671096,0.05691 6.901711,0.05691 0.786449,0 1.552345,-0.0049 2.321485,-0.0098 0.06058,3.471632 0.108177,6.89123 0.144958,10.128709 -3.526581,0.02764 -7.237062,0.01138 -11.101155,-0.04878 z m -12.09206,-0.32196 c -0.73236,-0.02927 -1.431185,-0.05366 -2.099721,-0.0813 0.66529,-3.536674 1.510155,-6.931881 2.521613,-10.120579 0.834047,0.03415 1.704874,0.06992 2.639526,0.104068 1.948274,0.07317 4.117228,0.143093 6.410588,0.200005 -0.553868,3.204958 -1.016867,6.592035 -1.379261,10.13684 -2.943504,-0.06667 -5.686881,-0.149598 -8.092745,-0.239031 z M 13.176286,48.826857 c 0.807003,0.04065 1.760045,0.08943 2.834246,0.136588 -0.972515,3.213089 -1.786008,6.603418 -2.425336,10.130336 -1.3057,-0.05529 -2.446971,-0.10732 -3.375132,-0.154476 0.765896,-3.541552 1.750309,-6.935133 2.966222,-10.112448 z M 34.268697,34.977729 c 0.174166,0.0033 0.336432,0.0033 0.508434,0.0049 -0.940061,3.567569 -1.768699,7.525392 -2.47077,11.818183 -0.321287,-0.0033 -0.632837,-0.0065 -0.957369,-0.01138 l -0.01082,1.326863 0.0086,-1.326863 c -2.760685,-0.0439 -5.378576,-0.110572 -7.785521,-0.186996 1.286228,-4.318808 2.796383,-8.297769 4.52073,-11.819809 1.909329,0.07968 3.986333,0.149597 6.186659,0.195127 z M 61.852829,33.46387 c 1.816296,3.481388 3.403258,7.424576 4.754392,11.704358 -0.14063,0.02276 -0.272606,0.04716 -0.417564,0.07155 -2.357183,0.375619 -5.068106,0.68457 -8.057046,0.926852 -0.715052,-4.28466 -1.559916,-8.240857 -2.518367,-11.805174 1.953682,-0.200005 3.755916,-0.439035 5.358022,-0.721969 0.307223,-0.05529 0.585239,-0.117076 0.880563,-0.175614 z m 1.101245,15.90609 c -3.168514,1.008155 -5.969224,4.178966 -7.992139,8.733552 -0.346168,-3.123656 -0.766978,-6.123731 -1.263511,-8.980713 0.728032,-0.03903 1.450658,-0.07968 2.148401,-0.126832 2.444807,-0.16098 4.697059,-0.370741 6.785963,-0.613024 0.108177,0.326838 0.219599,0.653675 0.321286,0.987017 z m 14.812718,6.362761 c -0.10385,0.178866 -0.206618,0.360985 -0.307223,0.547981 -0.403502,0.749612 -0.788612,1.53012 -1.145597,2.375669 -0.368885,0.881323 -0.698827,1.826062 -1.01254,2.801697 -0.169838,0 -0.351576,0.0033 -0.523578,0.0033 -0.598221,0.0065 -1.205095,0.0098 -1.814134,0.01463 -1.808725,0.01138 -3.653148,0.02114 -5.543005,0.02276 0.06707,-0.266673 0.137385,-0.534973 0.229336,-0.827663 0.278016,-0.891079 0.650146,-1.866713 1.056893,-2.835843 0.550622,-1.308976 1.148842,-2.559414 1.655112,-3.496023 l 6.580425,0.04065 1.658359,0.0081 c -0.287752,0.427653 -0.565767,0.874818 -0.834048,1.344749 z m -17.051988,5.75299 c -0.0011,-0.0098 -0.0011,-0.01626 -0.0011,-0.02439 -0.08654,0.0081 -0.18282,0.01301 -0.269362,0.02114 -0.916262,-0.0065 -1.844423,-0.01301 -2.773667,-0.01951 0.381866,-0.913844 0.798349,-1.756142 1.246203,-2.520389 1.513401,-2.574048 3.382705,-4.229374 5.428337,-4.562716 0.250972,-0.04065 0.505189,-0.07642 0.761569,-0.07642 l 1.099081,0.0065 1.953683,0.01301 c -0.428382,0.89921 -0.880563,1.918748 -1.303537,2.991945 -0.112505,0.282934 -0.223927,0.564242 -0.328859,0.850428 -0.111423,0.300821 -0.205536,0.596763 -0.30506,0.895958 -0.214191,0.643918 -0.392683,1.26995 -0.53115,1.869965 -0.04435,0.188623 -0.09628,0.38375 -0.130895,0.565868 -1.00713,-0.0016 -2.03157,-0.0033 -3.060336,-0.0081 -0.596057,0 -1.184542,-0.0016 -1.784925,-0.0033 z M 34.12374,46.82518 c 0.723706,-4.318807 1.573979,-8.296143 2.542166,-11.821434 1.070956,0.01301 2.160302,0.03415 3.198803,0.03415 1.546936,0 3.053846,-0.01463 4.512076,-0.0439 0.267198,-0.0049 0.513842,-0.01789 0.777795,-0.02602 0.107095,3.748061 0.193637,7.751413 0.263952,11.803548 -0.255298,0.0049 -0.499779,0.01301 -0.757241,0.01789 -3.301572,0.06342 -6.838969,0.07317 -10.537551,0.03577 z m 7.992139,-24.878672 c 0.03246,-0.0033 0.06599,-0.0049 0.09845,-0.0081 2.961894,2.161029 5.510552,5.574123 7.585393,10.197003 -1.747064,0.09431 -3.548216,0.16911 -5.446728,0.206509 -0.605793,0.01301 -1.25702,0.0098 -1.87904,0.01626 -0.09952,-4.84565 -0.218518,-8.284761 -0.358067,-10.411643 z m 5.067026,24.784361 c -0.07032,-4.057012 -0.156858,-8.063617 -0.260708,-11.818182 2.079168,-0.07155 4.098838,-0.165858 5.962733,-0.305699 0.299651,-0.02439 0.578749,-0.05041 0.871909,-0.0748 0.983332,3.51391 1.84226,7.473358 2.57462,11.772653 -0.191474,0.01301 -0.366721,0.02927 -0.560358,0.04065 -2.647099,0.172362 -5.531106,0.302446 -8.588196,0.385375 z m 5.61332,-14.77598 c -0.307224,0.02439 -0.649064,0.03577 -0.962779,0.05854 -1.582633,-3.847251 -3.451937,-7.00668 -5.586275,-9.445765 4.396325,2.055336 8.251764,5.021264 11.493839,8.886401 -1.531792,0.198379 -3.175005,0.367489 -4.944785,0.500826 z M 40.353671,22.138383 c 0.137385,2.030945 0.255299,5.470055 0.35374,10.236029 -2.079168,0.0081 -4.204852,-0.0016 -6.413833,-0.05041 -0.467326,-0.0098 -0.917343,-0.02276 -1.37277,-0.03415 2.032652,-4.559464 4.530465,-7.951419 7.432863,-10.151474 z m 14.887361,50.671189 c 0.188229,-3.170811 0.710725,-6.122105 1.48311,-8.697779 1.138026,0.0098 2.261988,0.01626 3.379459,0.02276 -0.703151,2.471606 -1.301373,5.735103 -1.590205,8.675014 h -3.272364 z m 15.361177,-8.665258 c 0.935734,-0.0049 1.846587,-0.01301 2.760686,-0.01951 0.400255,-0.0033 0.801594,-0.0065 1.19644,-0.0098 -0.296406,1.222795 -0.556031,2.486241 -0.755077,3.804973 -0.240154,1.57565 -0.409992,3.208211 -0.496534,4.889554 h -4.453659 c 0.326695,-3.074874 1.010375,-6.512359 1.748144,-8.665258 z M 65.113293,48.999219 c -0.103851,0 -0.203374,0.02602 -0.307224,0.03252 -0.09087,-0.302447 -0.191474,-0.587007 -0.284506,-0.884575 0.632838,-0.08781 1.262429,-0.172362 1.854159,-0.2683 3.162023,-0.505703 5.656592,-1.115475 7.572412,-1.837444 0.433791,0.990269 0.862173,1.985416 1.251611,3.019588 l -10.086452,-0.06179 z m 7.773621,-5.302572 c -1.233221,0.417896 -2.719577,0.795142 -4.432024,1.134988 -1.312191,-4.292791 -2.865617,-8.245736 -4.625662,-11.803548 0.598221,-0.147972 1.163988,-0.304073 1.694057,-0.466679 2.800711,3.159429 5.287706,6.89936 7.363629,11.135239 z M 63.529577,30.415013 c -0.856765,0.211387 -1.764372,0.409766 -2.76393,0.588633 -0.187147,0.03252 -0.389439,0.06179 -0.583076,0.09268 -2.329057,-3.104143 -4.985892,-5.725347 -7.948868,-7.855482 4.070712,1.4228 7.888289,3.848877 11.295874,7.174164 z M 35.953018,23.281501 c -1.935292,2.377295 -3.631512,5.37737 -5.086497,8.948192 -1.805479,-0.05854 -3.510353,-0.126833 -5.037817,-0.200005 -0.881645,-0.04228 -1.685403,-0.08618 -2.449135,-0.128459 3.724545,-4.021239 7.97375,-6.987167 12.573449,-8.619728 z M 21.211697,34.431374 c 1.254857,0.07642 2.796383,0.165858 4.561837,0.250413 0.06599,0.0016 0.141712,0.0065 0.206618,0.0081 -1.648622,3.58383 -3.105771,7.548157 -4.334665,11.847451 -0.342922,-0.01138 -0.703152,-0.02276 -1.036338,-0.03577 -2.498896,-0.09269 -4.64297,-0.190249 -6.343517,-0.274804 1.924474,-4.427753 4.262185,-8.401836 6.946065,-11.795417 z M 9.6821587,61.56864 c 1.7795173,0.08943 4.4525783,0.213013 7.7801123,0.334967 0.893544,0.03415 1.834688,0.06504 2.810446,0.09756 -0.693416,4.578976 -0.979004,8.424601 -1.082855,10.808401 H 8.4857174 C 8.6122851,68.937926 9.0363397,65.186612 9.6821587,61.568636 z m 12.3938743,0.484565 c 2.342039,0.06829 4.848507,0.128458 7.502096,0.169109 0.984414,0.01626 1.950437,0.02764 2.914297,0.03577 -0.38403,4.471657 -0.54305,8.213214 -0.603629,10.549858 H 20.96397 C 21.073229,70.42902 21.36639,66.5899 22.076033,62.053201 z m 11.583626,10.756367 c 0.06274,-2.3464 0.223927,-6.102592 0.613365,-10.533598 1.068792,0.0065 2.133257,0.01301 3.175005,0.01301 2.567047,0 5.045389,-0.02276 7.415553,-0.06667 1.028767,-0.01951 2.035898,-0.0439 3.033293,-0.07317 0.03786,4.203357 0.05842,7.923776 0.06815,10.66043 H 33.659659 z m 16.071902,0 c -0.01082,-2.748037 -0.03137,-6.489594 -0.07032,-10.717342 1.330581,-0.0439 2.627627,-0.09919 3.885729,-0.159354 -0.988741,3.247236 -1.644295,6.927003 -1.846587,10.87507 h -1.968827 z"
   id="path3"
   inkscape:connector-curvature="0"
   style="fill:#000000" />
</svg>