<?xml version="1.0" standalone="no"?>
<!DOCTYPE svg PUBLIC "-//W3C//DTD SVG 20010904//EN"
 "http://www.w3.org/TR/2001/REC-SVG-20010904/DTD/svg10.dtd">
<svg version="1.0" xmlns="http://www.w3.org/2000/svg"
 width="968.000000pt" height="1751.000000pt" viewBox="0 0 968.000000 1751.000000"
 preserveAspectRatio="xMidYMid meet">
<metadata>
Created by potrace 1.11, written by Peter Selinger 2001-2013
</metadata>
<g transform="translate(0.000000,1751.000000) scale(0.100000,-0.100000)"
fill="#000000" stroke="none">
<path d="M30 17492 c-34 -27 -38 -96 -10 -183 26 -79 26 -80 337 -574 1029
-1637 1987 -3423 2559 -4767 458 -1079 714 -1924 789 -2612 14 -127 15 -181 5
-370 -57 -1155 -392 -2897 -1000 -5191 -333 -1258 -854 -3038 -974 -3331 -57
-139 -86 -251 -86 -330 0 -74 11 -109 41 -124 77 -41 217 91 313 295 54 113
537 1582 854 2595 974 3109 1497 5208 1547 6215 11 214 -17 428 -96 735 -356
1380 -1784 4069 -3914 7372 -104 160 -243 288 -316 288 -15 0 -37 -8 -49 -18z"/>
<path d="M9533 17489 c-52 -26 -173 -151 -235 -244 -156 -236 -677 -1062 -970
-1540 -1695 -2764 -2736 -4851 -2994 -5998 -82 -367 -82 -600 1 -1173 165
-1137 736 -3276 1612 -6034 313 -989 678 -2089 727 -2196 112 -240 285 -373
342 -262 35 68 -3 268 -85 452 -68 151 -531 1713 -804 2716 -709 2596 -1089
4482 -1158 5745 -12 229 -8 325 22 544 183 1316 1054 3350 2532 5911 260 451
744 1249 962 1585 119 185 142 227 170 310 55 164 1 245 -122 184z"/>
<path d="M4839 16414 c-32 -35 -258 -204 -389 -291 -279 -186 -885 -554 -1263
-768 -97 -55 -176 -106 -177 -113 0 -8 49 -66 109 -130 559 -599 1128 -1458
1603 -2419 71 -145 135 -263 141 -263 7 0 30 40 51 88 48 104 244 497 319 637
293 546 660 1103 1004 1522 129 159 222 262 382 426 82 83 131 141 125 146 -5
5 -92 57 -194 116 -822 476 -1535 934 -1645 1055 -24 26 -37 25 -66 -6z m155
-514 c118 -90 461 -331 839 -589 242 -165 267 -185 254 -200 -337 -395 -739
-1047 -1085 -1761 -57 -118 -108 -226 -114 -240 -8 -21 -22 1 -134 215 -360
690 -737 1316 -1021 1696 l-80 107 226 153 c355 242 756 524 881 619 63 49
119 86 124 82 6 -3 55 -40 110 -82z"/>
</g>
</svg>
